<svg width="24" height="24" viewBox="0 0 24 24" fill="none" xmlns="http://www.w3.org/2000/svg">
  <path d="M22.5008 12.2588C22.5008 11.4604 22.4304 10.8814 22.2801 10.2829H12.2432V14.2579H18.1048C17.9897 15.1858 17.3664 16.5541 16.0001 17.4862L16.0184 17.614L19.2299 20.0929L19.4438 20.1143C21.4423 18.3118 22.5008 15.54 22.5008 12.2588Z" fill="#4285F4"/>
  <path d="M12.2432 22.4997C15.1609 22.4997 17.6156 21.558 19.4438 20.1143L16.0001 17.4862C15.1257 18.0694 13.9182 18.4787 12.2432 18.4787C9.35298 18.4787 6.92162 16.6066 6.10361 14.0573L5.98389 14.068L2.64201 16.6429L2.60092 16.7595C4.41846 20.1567 8.05591 22.4997 12.2432 22.4997Z" fill="#34A853"/>
  <path d="M6.10352 14.0573C5.89361 13.4588 5.77383 12.8192 5.77383 12.1575C5.77383 11.4957 5.89361 10.8562 6.09326 10.2577L6.08732 10.1219L2.70484 7.50024L2.60083 7.55553C1.91807 9.25456 1.52734 11.1458 1.52734 13.1325C1.52734 15.1192 1.91807 17.0104 2.60083 18.7094L6.10352 14.0573Z" fill="#FBBC05"/>
  <path d="M12.2432 5.83645C14.1578 5.83645 15.4627 6.6991 16.2143 7.40266L19.3032 4.41251C17.6052 2.84374 15.1609 1.81543 12.2432 1.81543C8.0559 1.81543 4.41845 4.15837 2.60092 7.55553L6.09334 10.2577C6.92162 7.70839 9.35298 5.83645 12.2432 5.83645Z" fill="#EB4335"/>
</svg>