<svg width="24" height="24" viewBox="0 0 24 24" fill="none" xmlns="http://www.w3.org/2000/svg">
  <path d="M12 2C6.477 2 2 6.477 2 12C2 17.523 6.477 22 12 22C17.523 22 22 17.523 22 12C22 6.477 17.523 2 12 2ZM11.984 7C12.7297 7 13.334 7.6043 13.334 8.35V9.7H10.334V14.7C10.334 15.4457 9.72967 16.05 8.984 16.05C8.23833 16.05 7.634 15.4457 7.634 14.7V8.35C7.634 7.6043 8.23833 7 8.984 7H11.984ZM15 14.7C15 15.4457 15.6043 16.05 16.35 16.05C17.0957 16.05 17.7 15.4457 17.7 14.7V12.35C17.7 11.6043 17.0957 11 16.35 11H15V14.7Z" fill="currentColor"/>
</svg>