<?xml version="1.0" encoding="UTF-8"?>
<svg width="24px" height="24px" viewBox="0 0 24 24" version="1.1" xmlns="http://www.w3.org/2000/svg">
    <title>OpenAI</title>
    <g stroke="none" stroke-width="1" fill="none" fill-rule="evenodd">
        <g fill="currentColor" fill-rule="nonzero">
            <path d="M22.2819 9.8211a5.9847 5.9847 0 0 0-.5157-4.9108 6.0462 6.0462 0 0 0-6.5098-2.9A6.0651 6.0651 0 0 0 4.9807 4.1818a5.9847 5.9847 0 0 0-3.9977 2.9 6.0462 6.0462 0 0 0 .7427 7.0966 5.98 5.98 0 0 0 .511 4.9107 6.051 6.051 0 0 0 6.5146 2.9001A5.9847 5.9847 0 0 0 13.2599 24a6.0557 6.0557 0 0 0 5.7718-4.2058 5.9894 5.9894 0 0 0 3.9977-2.9001 6.0557 6.0557 0 0 0-.7475-7.0729zm-9.022 12.6081a4.4558 4.4558 0 0 1-2.8373-1.0236 3.22 3.22 0 0 0 .5208-1.8082l.0028-.0633.0086-.0887.0069-.0596.0079-.0717.0176-.1026.0545-.2154.0611-.1883.0206-.0549.113-.2474.1058-.1932.1011-.1607.1267-.1883.1398-.1835.1635-.1986.1901-.2043.0611-.0611.2107-.1906.2141-.1893.23-.1768.2235-.1611.0545-.0366.2414-.1506.262-.1443.2779-.1399.1429-.0671.2414-.1056.1553-.0654.1678-.0651.2743-.0914.2779-.0813.2414-.0604.2386-.0512.1553-.0302.262-.0414.1306-.0183.2808-.0286.2206-.0157.1128-.0054.262-.0079h.5394l.2726.0079.0706.0054.126.0055.2664.0183.1246.0104.262.0236.2458.0305.1287.018.2276.0407.2304.047.2399.0582.2498.0709.2317.0722.2594.0917.2177.0842.2478.1033.2257.1028.1964.0961.262.139.1384.0794.142.0857.2657.1765.2206.1607.1722.1329.1923.1592.148.1371.1347.1312.1998.2141.113.1329.0752.0941.0918.1209.1763.2506.0611.0951.0917.1577.111.209.0984.2095.0574.1361.0182.047.0429.1209.0494.1506.0372.1329.0176.0709.0176.0671.0191.0971.0275.1803.0134.1055.0064.0651.0064.0822.0148.32.0042.1633a4.4461 4.4461 0 0 1-6.4428.8948zm-7.2884-2.427a4.4225 4.4225 0 0 1-1.2848-3.0037 3.31 3.31 0 0 0 1.5918-.7957l.098-.0868.1947-.2.0269-.0302.0332-.0366.0706-.0822.0723-.0887.1356-.1746.1232-.1713.0644-.0941.075-.1159.1011-.1622.0686-.1159.0933-.1664.0826-.1527.068-.1329.0723-.1443.0665-.1399.0602-.1301.0515-.1159.0505-.1191.057-.1399.0494-.1268.0349-.0941.0312-.0862.0546-.1592.0462-.1443.0269-.0887.0382-.1329.0338-.1191.026-.0995.0374-.1506.0296-.1268.0176-.0887.024-.1103.0214-.1191.012-.0757.0196-.1254.0148-.1125.0136-.1159.0099-.1056.0085-.1087.0099-.1443.0057-.0914.0071-.1399.0043-.1056.0028-.0685.0028-.103.0028-.1443v-.2258l-.0028-.1443-.0028-.1159-.0028-.0757-.0042-.0941-.0072-.1399-.0064-.1087-.0092-.1099-.0106-.1209-.0092-.0941-.0148-.1125-.0146-.1056-.0152-.1033-.0214-.1191-.0182-.084-.0254-.1125-.033-.1268-.0199-.0757-.0291-.1087-.0349-.1268-.0269-.0941-.0269-.0887-.0426-.1399-.0322-.1033-.0346-.1087-.0394-.1183-.0494-.1443-.0369-.099-.0602-.153-.0428-.1056-.0504-.1191-.0622-.1399-.0642-.1383-.0495-.1033-.068-.1329-.0622-.1183-.0937-.1663-.0686-.1208-.075-.1208-.0987-.1527-.0893-.1312-.0782-.1103-.1186-.1636-.0838-.1103-.0737-.0941-.1356-.1664-.0567-.0651-.0395-.0427-.254-.2709a4.4507 4.4507 0 0 1 2.1807-6.4115 3.1383 3.1383 0 0 0 1.3326 1.1433l.2037.0847.063.0236.1109.0407.0665.0215.0836.0271.0966.0271.2107.0542.1267.0303.075.0177.1232.0271.1429.0303.1482.0286.1504.0271.1611.0254.152.0223.1469.0198.2233.0251.1592.0144.0941.0079.1544.0112.1635.0097.1651.0072.0995.0035.1592.0042.1651.0035.0878.0014h.2939l.1651-.0035.1592-.0042.0995-.0035.1651-.0072.1635-.0097.1544-.0112.0941-.0079.1592-.0144.1125-.0104.1109-.0112.1482-.0183.1611-.0254.152-.0223.1504-.0271.1482-.0286.1429-.0303.1232-.0271.075-.0177.1267-.0303.2107-.0542.0966-.0271.0836-.0271.0665-.0215.1109-.0407.1287-.0518.1356-.0582.1325-.0604.0934-.0456.1109-.057.1011-.057.1045-.0604.1109-.0671.0995-.0628.0912-.0597.1012-.069.1046-.0737.0941-.0686.0813-.0611.0941-.0747.089-.0723.0856-.0725.0831-.0723.074-.068.0823-.0752.0771-.0737.0672-.0671.0762-.0761.0698-.0733.1443-.1602.0597-.0699.0627-.076.0567-.0709.059-.0771.0635-.0887.0503-.0719.0568-.0864.0532-.0836.0411-.069.055-.0995.0489-.0914.0443-.0887.0394-.0813.0426-.0953.0374-.0887.0342-.0843.0305-.0785.039-.1096.0286-.0843.0176-.0554.0321-.1103.0019-.0061.0269-.104.0227-.0953.0176-.0777.0199-.0953.0148-.0777.0157-.0887.0106-.0671.0127-.0917.0113-.0887.0078-.0671.0071-.0761.0078-.0917.0057-.0813.0042-.0685.0029-.0604.0028-.0733.0028-.0851.0028-.1183v-.0675-.1268l-.0028-.0918-.0028-.0851-.0029-.0733-.0028-.0604-.0042-.0685-.0057-.0813-.0078-.0917-.0071-.0761-.0078-.0671-.0113-.0887-.0127-.0917-.0106-.0671-.0157-.0887-.0148-.0777-.0199-.0953-.0176-.0777-.0227-.0953-.0269-.104-.0042-.0134-.0254-.1029-.0256-.0843-.0213-.0671-.039-.1096-.0305-.0785-.0342-.0843-.0374-.0887-.0426-.0953-.0394-.0813-.0443-.0887-.0489-.0914-.055-.0995-.0411-.069-.0532-.0836-.0568-.0864-.0503-.0719-.0635-.0887-.059-.0771-.0567-.0709-.0627-.076-.0597-.0699-.0722-.0802-.0721-.08-.0672-.0733-.0762-.0761-.0672-.0671-.0771-.0737-.0823-.0752-.074-.068-.0831-.0723-.0856-.0725-.089-.0723-.0941-.0747-.0813-.0611-.0941-.0686-.1046-.0737-.1012-.069-.0912-.0597-.0995-.0628-.1109-.0671-.1045-.0604-.1011-.057-.1109-.057-.0934-.0456-.1325-.0604-.1356-.0582-.0656-.0253a4.4366 4.4366 0 0 1 6.5907-1.9401 3.201 3.201 0 0 0-.6892 1.7799l-.0113.2154-.0029.1046v.0414l.0029.1251.0057.1389.0021.0366.0092.1094.0141.1268.0219.1389.032.1506.0219.0917.0326.1125.0301.0932.0394.1109.0419.1061.0482.1119.057.1208.057.1094.0615.1099.0723.1191.0628.0979.0777.1125.0757.1033.0693.0901.0798.0979.0875.1004.0917.0986.0966.0979.0914.0887.0761.0703.1035.0922.094.079.0989.0797.1159.089.0934.0685.1107.0789.119.0815.0956.0671.1125.079.1033.0733.1232.0822.0801.0567.113.0761.113.0723.1296.0771.0941.053.1087.0582.1183.0597.1128.0567.1091.0512.1133.0512.1314.0551.1096.0438.1039.0394.3593.1232.0989.0312.1057.031.1096.0286.1073.0262.1011.0223.1064.0215.1096.0198.1069.0168.2177.026.1075.0097.1064.0072.1028.0057.0954.0042.106.0035.1064.0014.1132.0007h.0384l.1132-.0007.1064-.0014.106-.0035.0954-.0042.1028-.0057.1064-.0072.1075-.0097.1088-.0126.1089-.0134.1069-.0168.1096-.0198.1064-.0215.1011-.0223.1073-.0262.1096-.0286.1057-.031.0989-.0312.3593-.1232.1039-.0394.1096-.0438.1314-.0551.1133-.0512.1091-.0512.1128-.0567.1183-.0597.1087-.0582.0941-.053.1296-.0771.113-.0723.113-.0761.0801-.0567.1232-.0822.1033-.0733.1125-.079.0956-.0671.119-.0815.1107-.0789.0934-.0685.1159-.089.0989-.0797.094-.079.1035-.0922.0761-.0703.0914-.0887.0966-.0979.0917-.0986.0875-.1004.0798-.0979.0693-.0901.0757-.1033.0777-.1125.0628-.0979.0723-.1191.0615-.1099.057-.1094.057-.1208.0482-.1119.0419-.1061.0394-.1109.0301-.0932.0326-.1125.0219-.0917.032-.1506.0219-.1389.0141-.1268.0092-.1094.0042-.0611.0036-.0803.0057-.1389.0029-.1251v-.4568-.0611l-.0091-.1586-.0078-.1092-.0099-.1056-.0141-.1268-.0148-.1125-.0219-.1389-.0254-.1329-.0349-.1552-.0394-.1435-.0412-.1389-.0407-.1159-.0525-.1389-.0617-.1443-.0642-.1399-.0686-.1329-.0761-.1399-.0718-.1227-.0931-.1527-.0968-.1493-.0963-.1356-.0923-.1244-.0999-.1291-.1165-.1435-.1102-.1285-.128-.1408-.1149-.1227-.1279-.1291-.1257-.1208-.1332-.1227-.146-.1291-.1337-.112-.1475-.1183-.1488-.1125-.1585-.1142-.1488-.1015-.1585-.1015-.1651-.101-.1585-.0914-.1585-.086-.1651-.086-.1723-.0822-.1723-.0778-.1777-.0732-.1786-.067-.1793-.0611-.1855-.0582-.1892-.0524-.1883-.0456-.1917-.0412-.2029-.0366-.194-.0305-.1931-.0254-.194-.0198-.1945-.0144-.1971-.0092-.1939-.0042h-.0262a4.4558 4.4558 0 0 1 1.2832-3.0037zm7.2884 2.427a4.4366 4.4366 0 0 1 1.2833 3.0036 3.2192 3.2192 0 0 0-1.5897.7957l-.0981.0868-.0973.1-.097.1-.0269.0302-.0332.0366-.0706.0822-.0723.0887-.1356.1746-.1233.1713-.0644.0941-.0749.1159-.1012.1622-.0686.1159-.0932.1664-.0826.1527-.068.1329-.0723.1443-.0665.1399-.0602.1301-.0515.1159-.0505.1191-.057.1399-.0494.1268-.0349.0941-.0312.0862-.0546.1592-.0462.1443-.0269.0887-.0382.1329-.0338.1191-.026.0995-.0374.1506-.0296.1268-.0176.0887-.024.1103-.0214.1191-.012.0757-.0196.1254-.0148.1125-.0136.1159-.0099.1056-.0085.1087-.0099.1443-.0057.0914-.0071.1399-.0043.1056-.0028.0685-.0028.103-.0028.1443v.2259l.0028.1442.0028.1159.0028.0757.0043.0941.0071.1399.0057.1087.0099.1099.0085.1087.0099.1056.0136.1159.0148.1125.0196.1254.012.0757.0214.1191.024.1103.0176.0887.0296.1268.0374.1506.026.0995.0338.1191.0382.1329.0269.0887.0462.1443.0546.1592.0312.0862.0349.0941.0494.1268.057.1399.0505.1191.0515.1159.0602.1301.0665.1399.0723.1443.068.1329.0826.1527.0932.1664.0686.1159.1012.1622.0749.1159.0644.0941.1233.1713.1356.1746.0723.0887.0706.0822.0332.0366.0269.0302.097.1.0973.1.0981.0868.0734.0611.125.0995.097.0733.103.0768.1098.079.1019.0708.1075.0733.1012.0672.1185.0762.1019.0637.0992.0597.1232.0733.1001.057.103.0568.1183.0627.0979.05.1026.0523.1088.0523.1125.0523.0953.0418.1053.0427.0896.0334.1119.0396.0856.0298.1149.037.0761.0233.1125.032.0836.0226.098.025.0941.0235.0933.022.0784.0176.0953.0198.0784.0155.0851.0163.0851.0149.07.0113.0917.0127.068.0078.0856.0098.0671.0063.0836.0064.057.0042.0836.0064.057.0035.0675.0035.0642.0029.057.0014.1444.0021h.0213l.1444-.0021.057-.0014.0642-.0029.0675-.0035.057-.0035.0836-.0064.057-.0042.0836-.0064.0671-.0063.0856-.0098.068-.0078.0917-.0127.07-.0113.0851-.0149.0851-.0163.0784-.0155.0953-.0198.0784-.0176.0933-.022.0941-.0235.098-.025.0836-.0226.1125-.032.0761-.0233.1149-.037.0856-.0298.1119-.0396.0896-.0334.1053-.0427.0953-.0418.1125-.0523.1088-.0523.1026-.0523.0979-.05.1183-.0627.103-.0568.1001-.057.1232-.0733.0992-.0597.1019-.0637.1185-.0762.1012-.0672.1075-.0733.1019-.0708.1098-.079.103-.0768.097-.0733.125-.0995.0734-.0611.1973-.1746c.6528-.603 1.5337-.88 2.4065-.7602a4.413 4.413 0 0 1-2.1807 6.4117 3.1384 3.1384 0 0 0-1.3326-1.1433l-.2037-.0847-.063-.0236-.1109-.0407-.0665-.0215-.0836-.0271-.0966-.0271-.2107-.0542-.1267-.0303-.075-.0177-.1232-.0271-.1429-.0303-.1482-.0286-.1504-.0271-.1611-.0254-.152-.0223-.1468-.0198-.2234-.0251-.1592-.0144-.0941-.0079-.1544-.0112-.1635-.0097-.1651-.0072-.0995-.0035-.1592-.0042-.1651-.0035-.0879-.0014h-.2938l-.1651.0035-.1592.0042-.0995.0035-.1651.0072-.1635.0097-.1544.0112-.0941.0079-.1592.0144-.1125.0104-.1109.0112-.1482.0183-.1611.0254-.152.0223-.1504.0271-.1482.0286-.1429.0303-.1232.0271-.075.0177-.1267.0303-.2107.0542-.0966.0271-.0836.0271-.0665.0215-.1109.0407-.1287.0518-.1356.0582-.1325.0604-.0934.0456-.1109.057-.1011.057-.1045.0604-.1109.0671-.0995.0628-.0913.0597-.1011.069-.1046.0737-.0941.0686-.0813.0611-.0941.0747-.089.0723-.0856.0725-.0831.0723-.074.068-.0823.0752-.0771.0737-.0672.0671-.0762.0761-.0698.0733-.1444.1602-.0596.0699-.0627.076-.0567.0709-.059.0771-.0635.0887-.0503.0719-.0568.0864-.0532.0836-.0411.069-.055.0995-.0489.0914-.0443.0887-.0394.0813-.0426.0953-.0374.0887-.0342.0843-.0305.0785-.039.1096-.0286.0843-.0176.0554-.0321.1103-.0019.0061-.0269.104-.0227.0953-.0176.0777-.0198.0953-.0149.0777-.0156.0887-.0107.0671-.0127.0917-.0112.0887-.0078.0671-.0072.0761-.0078.0917-.0056.0813-.0043.0685-.0028.0604-.0028.0733-.0029.0851-.0028.1183v.0675.1268l.0028.0918.0029.0851.0028.0733.0028.0604.0043.0685.0056.0813.0078.0917.0072.0761.0078.0671.0112.0887.0127.0917.0107.0671.0156.0887.0149.0777.0198.0953.0176.0777.0227.0953.0269.104.0042.0134.0254.1029.0256.0843.0213.0671.039.1096.0305.0785.0342.0843.0374.0887.0426.0953.0394.0813.0443.0887.0489.0914.055.0995.0411.069.0532.0836.0568.0864.0503.0719.0635.0887.059.0771.0567.0709.0627.076.0596.0699.0722.0802.0722.08.0671.0733.0762.0761.0672.0671.0771.0737.0823.0752.074.068.0831.0723.0856.0725.089.0723.0941.0747.0813.0611.0941.0686.1046.0737.1011.069.0913.0597.0995.0628.1109.0671.1045.0604.1011.057.1109.057.0934.0456.1325.0604.1356.0582.0656.0253a4.4366 4.4366 0 0 1-6.5907 1.9401 3.201 3.201 0 0 0 .6892-1.7799l.0112-.2154.003-.1046v-.0414l-.003-.1251-.0056-.1389-.0021-.0366-.0092-.1094-.0141-.1268-.0219-.1389-.032-.1506-.0219-.0917-.0327-.1125-.0301-.0932-.0394-.1109-.0419-.1061-.0482-.1119-.057-.1208-.057-.1094-.0615-.1099-.0723-.1191-.0628-.0979-.0777-.1125-.0757-.1033-.0693-.0901-.0798-.0979-.0875-.1004-.0917-.0986-.0965-.0979-.0915-.0887-.0761-.0703-.1035-.0922-.094-.079-.0989-.0797-.1159-.089-.0934-.0685-.1107-.0789-.1189-.0815-.0957-.0671-.1125-.079-.1033-.0733-.1232-.0822-.0801-.0567-.113-.0761-.113-.0723-.1296-.0771-.0941-.053-.1087-.0582-.1183-.0597-.1128-.0567-.1091-.0512-.1133-.0512-.1314-.0551-.1096-.0438-.1039-.0394-.3593-.1232-.0989-.0312-.1057-.031-.1096-.0286-.1073-.0262-.1011-.0223-.1064-.0215-.1096-.0198-.1069-.0168-.2177-.026-.1075-.0097-.1064-.0072-.1028-.0057-.0954-.0042-.106-.0035-.1064-.0014-.1132-.0007h-.0384l-.1132.0007-.1064.0014-.106.0035-.0954.0042-.1028.0057-.1064.0072-.1075.0097-.1088.0126-.1089.0134-.1069.0168-.1096.0198-.1064.0215-.1011.0223-.1073.0262-.1096.0286-.1057.031-.0989.0312-.3593.1232-.1039.0394-.1096.0438-.1314.0551-.1133.0512-.1091.0512-.1128.0567-.1183.0597-.1087.0582-.0941.053-.1296.0771-.113.0723-.113.0761-.0801.0567-.1232.0822-.1033.0733-.1125.079-.0956.0671-.119.0815-.1107.0789-.0934.0685-.1159.089-.0989.0797-.094.079-.1035.0922-.0761.0703-.0914.0887-.0966.0979-.0917.0986-.0875.1004-.0798.0979-.0693.0901-.0757.1033-.0777.1125-.0628.0979-.0723.1191-.0615.1099-.057.1094-.057.1208-.0482.1119-.0419.1061-.0394.1109-.0301.0932-.0326.1125-.0219.0917-.032.1506-.0219.1389-.0141.1268-.0092.1094-.0042.0611-.0036.0803-.0057.1389-.0029.1251v.4568.0611l.0091.1586.0078.1092.0099.1056.0141.1268.0148.1125.0219.1389.0254.1329.0349.1552.0394.1435.0412.1389.0407.1159.0525.1389.0617.1443.0642.1399.0686.1329.0761.1399.0718.1227.0931.1527.0968.1493.0963.1356.0923.1244.0999.1291.1165.1435.1102.1285.128.1408.1149.1227.1279.1291.1257.1208.1332.1227.146.1291.1337.112.1475.1183.1488.1125.1585.1142.1488.1015.1585.1015.1651.101.1585.0914.1585.086.1651.086.1723.0822.1723.0778.1777.0732.1786.067.1793.0611.1855.0582.1892.0524.1883.0456.1917.0412.2029.0366.194.0305.1931.0254.194.0198.1945.0144.1971.0092.1939.0042h.0262a4.4558 4.4558 0 0 1-1.2832 3.0037zM19.3787 12a7.3814 7.3814 0 0 1-4.3871 6.7473 5.9718 5.9718 0 0 1-3.1857.3018c-.0523-.0099-.1042-.0206-.156-.0322a5.4368 5.4368 0 0 1-.6144-.1836 6.0184 6.0184 0 0 1-2.2769-1.4766 7.3732 7.3732 0 0 1-2.473-5.3567c0-.1501.0045-.3031.0131-.4536a7.3497 7.3497 0 0 1 2.1804-4.9039 6.0334 6.0334 0 0 1 1.7874-1.2531c.0533-.0252.1071-.0494.162-.0728a5.9876 5.9876 0 0 1 4.5325.1848A7.3788 7.3788 0 0 1 19.3787 12z"></path>
        </g>
    </g>
</svg>